<?xml version="1.0" standalone="no"?>
<!DOCTYPE svg PUBLIC "-//W3C//DTD SVG 20010904//EN"
 "http://www.w3.org/TR/2001/REC-SVG-20010904/DTD/svg10.dtd">
<svg version="1.0" xmlns="http://www.w3.org/2000/svg"
 width="100.000000pt" height="100.000000pt" viewBox="0 0 100.000000 100.000000"
 preserveAspectRatio="xMidYMid meet">
<metadata>
Created by potrace 1.11, written by Peter Selinger 2001-2013
</metadata>
<g transform="translate(0.000000,100.000000) scale(0.100000,-0.100000)"
fill="#000000" stroke="none">
<path d="M423 729 c-75 -48 -108 -216 -68 -343 22 -70 60 -107 117 -113 97
-10 150 67 155 224 2 92 -5 130 -35 189 -31 63 -108 82 -169 43z m98 -91 c18
-43 18 -213 0 -256 -21 -49 -59 -42 -79 16 -15 43 -10 209 8 245 19 39 54 36
71 -5z"/>
<path d="M130 718 c-71 -36 -108 -106 -111 -213 -3 -104 45 -191 118 -216 32
-10 138 -8 150 4 2 3 5 57 6 120 l2 116 -63 3 -62 3 0 -37 c0 -31 4 -38 20
-38 18 0 20 -7 20 -54 0 -48 -2 -54 -19 -51 -36 7 -59 29 -70 65 -22 76 -10
169 29 210 23 25 33 28 73 26 26 -1 47 0 48 3 0 3 3 19 5 35 3 18 0 32 -8 37
-25 16 -94 9 -138 -13z"/>
<path d="M694 727 c-2 -7 -3 -109 -2 -227 l3 -215 40 -3 c121 -11 198 44 220
156 6 30 7 128 2 152 -11 54 -32 92 -64 116 -31 23 -47 28 -115 30 -56 3 -80
0 -84 -9z m150 -90 c18 -24 21 -43 21 -115 0 -100 -16 -149 -53 -163 -14 -5
-27 -7 -30 -5 -2 3 -4 63 -4 133 0 195 -1 185 23 181 12 -2 31 -16 43 -31z"/>
</g>
</svg>
